<?xml version="1.0" standalone="no"?>
<!DOCTYPE svg PUBLIC "-//W3C//DTD SVG 1.1//EN" "http://www.w3.org/Graphics/SVG/1.1/DTD/svg11.dtd" >
<svg xmlns="http://www.w3.org/2000/svg">
<metadata>
Created by FontPrep 20130207 at Wed Oct 12 21:59:48 2016
 By Thorn Walli
Copyright lammpee 2016
</metadata>
<defs>
<font id="1a9161f4c302f829a2df69ffe435b1bb" horiz-adv-x='1024' >
  <font-face 
    font-family="Amiga-Topaz-1.3"
    font-weight="400"
    font-stretch="normal"
    units-per-em="2048"
    panose-1="2 0 5 3 0 0 0 0 0 0"
    ascent="2048"
    descent="0"
    x-height="1536"
    cap-height="2048"
    bbox="0 0 1152 2048"
    underline-thickness="102"
    underline-position="255"
    unicode-range="U+0020-00FF"
  />
<missing-glyph 
 />
    <glyph glyph-name=".notdef" 
 />
    <glyph glyph-name=".null" horiz-adv-x="0" 
 />
    <glyph glyph-name="nonmarkingreturn" horiz-adv-x="682" 
 />
    <glyph glyph-name="space" unicode=" " 
 />
    <glyph glyph-name="exclam" unicode="!" horiz-adv-x="640" 
d="M128 768v512h-128v512h128v256h256v-256h128v-512h-128v-512h-256zM128 256v256h256v-256h-256z" />
    <glyph glyph-name="quotedbl" unicode="&#x22;" horiz-adv-x="896" 
d="M512 1536v512h256v-512h-256zM128 1536v512h256v-512h-256z" />
    <glyph glyph-name="numbersign" unicode="#" 
d="M128 256v512h-128v256h128v256h-128v256h128v512h256v-512h128v512h256v-512h128v-256h-128v-256h128v-256h-128v-512h-256v512h-128v-512h-256zM512 1024v256h-128v-256h128z" />
    <glyph glyph-name="dollar" unicode="$" horiz-adv-x="896" 
d="M256 256v256h-256v256h512v256h-384v256h-128v256h128v256h128v256h256v-256h256v-256h-512v-256h384v-256h128v-256h-128v-256h-128v-256h-256z" />
    <glyph glyph-name="percent" unicode="%" 
d="M0 256v256h128v256h128v256h128v256h128v256h128v256h256v-256h-128v-256h-128v-256h-128v-256h-128v-256h-128v-256h-256zM0 1280v512h256v-512h-256zM640 256v512h256v-512h-256z" />
    <glyph glyph-name="ampersand" unicode="&#x26;" 
d="M128 256v256h-128v512h128v768h128v256h384v-256h128v-256h-128v-256h256v-256h-128v-512h128v-256h-256v256h-128v-256h-384zM512 512v256h-128v256h-128v-512h256zM512 1280v-256h128v256h-128zM512 1280v512h-128v-512h128z" />
    <glyph glyph-name="quotesingle" unicode="'" horiz-adv-x="512" 
d="M128 1536v512h256v-512h-256z" />
    <glyph glyph-name="parenleft" unicode="(" horiz-adv-x="768" 
d="M384 256v256h-128v256h-128v768h128v256h128v256h256v-256h-128v-256h-128v-768h128v-256h128v-256h-256z" />
    <glyph glyph-name="parenright" unicode=")" horiz-adv-x="768" 
d="M128 256v256h128v256h128v768h-128v256h-128v256h256v-256h128v-256h128v-768h-128v-256h-128v-256h-256z" />
    <glyph glyph-name="asterisk" unicode="*" horiz-adv-x="1152" 
d="M128 512v256h128v256h-256v256h256v256h-128v256h256v-256h256v256h256v-256h-128v-256h256v-256h-256v-256h128v-256h-256v256h-256v-256h-256z" />
    <glyph glyph-name="plus" unicode="+" 
d="M384 512v512h-256v256h256v512h256v-512h256v-256h-256v-512h-256z" />
    <glyph glyph-name="comma" unicode="," horiz-adv-x="512" 
d="M0 0v256h128v512h256v-512h-128v-256h-256z" />
    <glyph glyph-name="hyphen" unicode="-" 
d="M128 1024v256h768v-256h-768z" />
    <glyph glyph-name="period" unicode="." horiz-adv-x="512" 
d="M128 256v512h256v-512h-256z" />
    <glyph glyph-name="slash" unicode="/" horiz-adv-x="1152" 
d="M0 256v256h128v256h128v256h128v256h128v256h128v256h128v256h256v-256h-128v-256h-128v-256h-128v-256h-128v-256h-128v-256h-128v-256h-256z" />
    <glyph glyph-name="zero" unicode="0" horiz-adv-x="896" 
d="M128 256v256h-128v1280h128v256h512v-256h128v-1280h-128v-256h-512zM384 1280v256h128v256h-256v-512h128zM512 512v512h-128v-256h-128v-256h256z" />
    <glyph glyph-name="one" unicode="1" horiz-adv-x="896" 
d="M0 256v256h256v1024h-128v256h128v256h256v-1536h256v-256h-768z" />
    <glyph glyph-name="two" unicode="2" horiz-adv-x="896" 
d="M0 256v512h128v256h128v256h256v512h-256v-256h-256v256h128v256h512v-256h128v-512h-128v-256h-256v-256h-128v-256h256v256h256v-512h-768z" />
    <glyph glyph-name="three" unicode="3" horiz-adv-x="896" 
d="M128 256v256h-128v256h256v-256h256v512h-256v256h256v512h-256v-256h-256v256h128v256h512v-256h128v-512h-128v-256h128v-512h-128v-256h-512z" />
    <glyph glyph-name="four" unicode="4" 
d="M384 256v256h128v256h-512v512h128v256h128v256h128v256h384v-1024h128v-256h-128v-256h128v-256h-512zM512 1024v512h-128v-256h-128v-256h256z" />
    <glyph glyph-name="five" unicode="5" horiz-adv-x="896" 
d="M128 256v256h-128v256h256v-256h256v768h-512v768h768v-256h-512v-256h384v-256h128v-768h-128v-256h-512z" />
    <glyph glyph-name="six" unicode="6" horiz-adv-x="896" 
d="M128 256v256h-128v1024h128v256h128v256h384v-256h-256v-256h-128v-256h384v-256h128v-512h-128v-256h-512zM512 512v512h-256v-512h256z" />
    <glyph glyph-name="seven" unicode="7" horiz-adv-x="896" 
d="M256 256v768h128v256h128v512h-256v-256h-256v512h768v-768h-128v-256h-128v-768h-256z" />
    <glyph glyph-name="eight" unicode="8" horiz-adv-x="896" 
d="M128 256v256h-128v512h128v256h-128v512h128v256h512v-256h128v-512h-128v-256h128v-512h-128v-256h-512zM512 1280v512h-256v-512h256zM512 512v512h-256v-512h256z" />
    <glyph glyph-name="nine" unicode="9" horiz-adv-x="896" 
d="M128 256v256h256v256h128v256h-384v256h-128v512h128v256h512v-256h128v-1024h-128v-256h-128v-256h-384zM512 1280v512h-256v-512h256z" />
    <glyph glyph-name="colon" unicode=":" horiz-adv-x="512" 
d="M128 1280v512h256v-512h-256zM128 256v512h256v-512h-256z" />
    <glyph glyph-name="semicolon" unicode=";" horiz-adv-x="512" 
d="M128 1280v512h256v-512h-256zM0 0v256h128v512h256v-512h-128v-256h-256z" />
    <glyph glyph-name="less" unicode="&#x3c;" horiz-adv-x="896" 
d="M512 256v256h-128v256h-128v256h-128v256h128v256h128v256h128v256h256v-256h-128v-256h-128v-256h-128v-256h128v-256h128v-256h128v-256h-256z" />
    <glyph glyph-name="equal" unicode="=" 
d="M128 1280v256h768v-256h-768zM128 768v256h768v-256h-768z" />
    <glyph glyph-name="greater" unicode="&#x3e;" horiz-adv-x="896" 
d="M128 256v256h128v256h128v256h128v256h-128v256h-128v256h-128v256h256v-256h128v-256h128v-256h128v-256h-128v-256h-128v-256h-128v-256h-256z" />
    <glyph glyph-name="question" unicode="?" horiz-adv-x="896" 
d="M256 768v256h128v256h128v512h-256v-256h-256v256h128v256h512v-256h128v-512h-128v-256h-128v-256h-256zM256 256v256h256v-256h-256z" />
    <glyph glyph-name="at" unicode="@" 
d="M128 256v256h-128v1280h128v256h640v-256h128v-1024h-512v768h256v256h-384v-1280h384v-256h-512z" />
    <glyph glyph-name="A" unicode="A" horiz-adv-x="1152" 
d="M0 256v512h128v512h128v512h128v256h256v-256h128v-512h128v-512h128v-512h-256v512h-512v-512h-256zM640 1024v256h-256v-256h256z" />
    <glyph glyph-name="B" unicode="B" 
d="M0 256v256h128v1280h-128v256h768v-256h128v-512h-128v-256h128v-512h-128v-256h-768zM640 1280v512h-256v-512h256zM640 512v512h-256v-512h256z" />
    <glyph glyph-name="C" unicode="C" 
d="M256 256v256h-128v256h-128v768h128v256h128v256h512v-256h128v-256h-256v256h-256v-256h-128v-768h128v-256h256v256h256v-256h-128v-256h-512z" />
    <glyph glyph-name="D" unicode="D" 
d="M0 256v256h128v1280h-128v256h640v-256h128v-256h128v-768h-128v-256h-128v-256h-640zM512 512v256h128v768h-128v256h-128v-1280h128z" />
    <glyph glyph-name="E" unicode="E" 
d="M0 256v256h128v1280h-128v256h896v-512h-256v256h-256v-512h256v-256h-256v-512h256v256h256v-512h-896z" />
    <glyph glyph-name="F" unicode="F" 
d="M0 256v256h128v1280h-128v256h896v-512h-256v256h-256v-512h256v-256h-256v-512h128v-256h-512z" />
    <glyph glyph-name="G" unicode="G" 
d="M256 256v256h-128v256h-128v768h128v256h128v256h512v-256h128v-256h-256v256h-256v-256h-128v-768h128v-256h256v512h-128v256h384v-1024h-640z" />
    <glyph glyph-name="H" unicode="H" 
d="M128 256v1792h256v-768h256v768h256v-1792h-256v768h-256v-768h-256z" />
    <glyph glyph-name="I" unicode="I" 
d="M128 256v256h256v1280h-256v256h768v-256h-256v-1280h256v-256h-768z" />
    <glyph glyph-name="J" unicode="J" horiz-adv-x="896" 
d="M0 512v512h256v-512h256v1280h-128v256h384v-1536h-128v-256h-384v256h-256z" />
    <glyph glyph-name="K" unicode="K" 
d="M0 256v256h128v1280h-128v256h384v-768h128v256h128v512h256v-512h-128v-256h-128v-256h128v-256h128v-512h-256v512h-128v256h-128v-768h-384z" />
    <glyph glyph-name="L" unicode="L" 
d="M0 256v256h128v1280h-128v256h512v-256h-128v-1280h256v256h128v256h128v-768h-896z" />
    <glyph glyph-name="M" unicode="M" 
d="M0 256v1792h128v-256h128v-256h128v-256h128v256h128v256h128v256h128v-1792h-256v768h-128v-256h-128v256h-128v-768h-256z" />
    <glyph glyph-name="N" unicode="N" 
d="M0 256v1792h256v-256h128v-256h128v-256h128v768h256v-1792h-256v512h-128v256h-128v256h-128v-1024h-256z" />
    <glyph glyph-name="O" unicode="O" 
d="M256 256v256h-128v256h-128v768h128v256h128v256h384v-256h128v-256h128v-768h-128v-256h-128v-256h-384zM512 512v256h128v768h-128v256h-128v-256h-128v-768h128v-256h128z" />
    <glyph glyph-name="P" unicode="P" 
d="M0 256v256h128v1280h-128v256h768v-256h128v-512h-128v-256h-384v-512h128v-256h-512zM640 1280v512h-256v-512h256z" />
    <glyph glyph-name="Q" unicode="Q" 
d="M512 0v256h-256v256h-128v256h-128v768h128v256h128v256h384v-256h128v-256h128v-768h-128v-256h-128v-256h128v-256h-256zM512 512v256h128v768h-128v256h-128v-256h-128v-768h128v-256h128z" />
    <glyph glyph-name="R" unicode="R" horiz-adv-x="1152" 
d="M0 256v256h128v1280h-128v256h768v-256h128v-512h-128v-512h128v-256h128v-256h-256v256h-128v256h-128v256h-128v-768h-384zM640 1280v512h-256v-512h256z" />
    <glyph glyph-name="S" unicode="S" 
d="M256 256v256h-128v256h256v-256h256v256h-128v256h-256v256h-128v512h128v256h512v-256h128v-256h-256v256h-256v-256h128v-256h128v-256h256v-512h-128v-256h-512z" />
    <glyph glyph-name="T" unicode="T" 
d="M256 256v256h128v1280h-128v-256h-128v512h768v-512h-128v256h-128v-1280h128v-256h-512z" />
    <glyph glyph-name="U" unicode="U" 
d="M256 256v256h-128v1536h256v-1536h256v1536h256v-1792h-640z" />
    <glyph glyph-name="V" unicode="V" horiz-adv-x="1152" 
d="M384 256v256h-128v512h-128v512h-128v512h256v-512h128v-512h256v512h128v512h256v-512h-128v-512h-128v-512h-128v-256h-256z" />
    <glyph glyph-name="W" unicode="W" 
d="M0 256v1792h256v-1024h128v256h128v-256h128v1024h256v-1792h-256v256h-128v256h-128v-256h-128v-256h-256z" />
    <glyph glyph-name="X" unicode="X" horiz-adv-x="1152" 
d="M0 256v256h128v256h128v256h128v256h-128v256h-128v256h-128v256h256v-256h128v-256h256v256h128v256h256v-256h-128v-256h-128v-256h-128v-256h128v-256h128v-256h128v-256h-256v256h-128v256h-256v-256h-128v-256h-256z" />
    <glyph glyph-name="Y" unicode="Y" horiz-adv-x="1152" 
d="M256 256v256h128v512h-128v256h-128v256h-128v512h256v-512h128v-256h256v256h128v512h256v-512h-128v-256h-128v-256h-128v-512h128v-256h-512z" />
    <glyph glyph-name="Z" unicode="Z" 
d="M0 256v256h128v256h128v256h128v256h128v256h128v256h-384v-256h-128v-256h-128v768h896v-512h-128v-256h-128v-256h-128v-256h-128v-256h256v256h128v256h128v-768h-896z" />
    <glyph glyph-name="bracketleft" unicode="[" horiz-adv-x="768" 
d="M128 256v1792h512v-256h-256v-1280h256v-256h-512z" />
    <glyph glyph-name="backslash" unicode="\" horiz-adv-x="1152" 
d="M768 256v256h-128v256h-128v256h-128v256h-128v256h-128v256h-128v256h256v-256h128v-256h128v-256h128v-256h128v-256h128v-256h128v-256h-256z" />
    <glyph glyph-name="bracketright" unicode="]" horiz-adv-x="768" 
d="M128 256v256h256v1280h-256v256h512v-1792h-512z" />
    <glyph glyph-name="asciicircum" unicode="^" 
d="M0 1024v256h128v256h128v256h128v256h128v-256h128v-256h128v-256h128v-256h-256v256h-128v256h-128v-256h-128v-256h-256z" />
    <glyph glyph-name="underscore" unicode="_" 
d="M0 0v256h896v-256h-896z" />
    <glyph glyph-name="grave" unicode="`" horiz-adv-x="640" 
d="M256 1280v256h-128v512h256v-512h128v-256h-256z" />
    <glyph glyph-name="a" unicode="a" 
d="M640 256v256h-128v256h-256v256h256v256h-384v256h512v-256h128v-768h128v-256h-256zM128 256v256h-128v256h256v-256h256v-256h-384z" />
    <glyph glyph-name="b" unicode="b" 
d="M256 256v256h-128v1280h-128v256h384v-768h128v256h256v-256h128v-768h-128v-256h-512zM512 1280v-256h-128v-512h256v768h-128z" />
    <glyph glyph-name="c" unicode="c" horiz-adv-x="896" 
d="M0 512v768h128v256h512v-256h128v-256h-256v256h-256v-768h-256zM256 512h256v256h256v-256h-128v-256h-384v256z" />
    <glyph glyph-name="d" unicode="d" 
d="M640 256v256h-128v512h-128v256h128v512h-128v256h384v-1536h128v-256h-256zM128 256v256h-128v768h128v256h256v-256h-128v-768h256v-256h-384z" />
    <glyph glyph-name="e" unicode="e" horiz-adv-x="896" 
d="M128 256v256h-128v768h128v256h512v-256h128v-512h-512v-256h384v-256h-512zM512 1024v256h-256v-256h256z" />
    <glyph glyph-name="f" unicode="f" horiz-adv-x="896" 
d="M0 256v256h128v512h-128v256h128v512h128v256h384v-256h128v-256h-256v256h-128v-512h128v-256h-128v-512h128v-256h-512z" />
    <glyph glyph-name="g" unicode="g" horiz-adv-x="1152" 
d="M128 0v256h-128v256h256v256h-128v512h128v256h384v-256h128v256h256v-256h-128v-512h-128v-256h128v-256h-256v256h-384v-256h384v-256h-512zM640 1280h-256v-512h256v512z" />
    <glyph glyph-name="h" unicode="h" 
d="M0 256v256h128v1280h-128v256h384v-768h128v-256h-128v-768h-384zM640 256v1024h-128v256h256v-256h128v-1024h-256z" />
    <glyph glyph-name="i" unicode="i" horiz-adv-x="640" 
d="M128 1792v256h256v-256h-256zM0 256v256h128v768h-128v256h384v-1024h128v-256h-512z" />
    <glyph glyph-name="j" unicode="j" 
d="M512 1792v256h256v-256h-256zM128 0v256h-128v256h256v-256h256v1280h256v-1280h-128v-256h-512z" />
    <glyph glyph-name="k" unicode="k" 
d="M0 256v256h128v1280h-128v256h384v-1024h128v256h128v256h256v-256h-128v-256h-128v-256h128v-256h128v-256h-256v256h-128v256h-128v-512h-384z" />
    <glyph glyph-name="l" unicode="l" horiz-adv-x="640" 
d="M0 256v256h128v1280h-128v256h384v-1536h128v-256h-512z" />
    <glyph glyph-name="m" unicode="m" 
d="M640 256v768h-128v512h256v-256h128v-1024h-256zM0 256v1280h256v-256h128v-256h-128v-768h-256zM512 1024v-256h-128v256h128z" />
    <glyph glyph-name="n" unicode="n" horiz-adv-x="896" 
d="M0 256v1280h640v-256h128v-1024h-256v1024h-256v-1024h-256z" />
    <glyph glyph-name="o" unicode="o" horiz-adv-x="896" 
d="M128 256v256h-128v768h128v256h512v-256h128v-768h-128v-256h-512zM512 512v768h-256v-768h256z" />
    <glyph glyph-name="p" unicode="p" 
d="M0 0v256h128v1024h-128v256h256v-256h128v256h384v-256h128v-512h-128v-256h-384v-256h128v-256h-512zM384 1280v-512h256v512h-256z" />
    <glyph glyph-name="q" unicode="q" horiz-adv-x="1152" 
d="M512 0v256h128v256h-384v256h-128v512h128v256h384v-256h128v256h256v-256h-128v-1024h128v-256h-512zM640 1280h-256v-512h256v512z" />
    <glyph glyph-name="r" unicode="r" 
d="M640 768v512h-128v256h256v-256h128v-512h-256zM0 256v256h128v768h-128v256h384v-256h128v-256h-128v-512h128v-256h-512z" />
    <glyph glyph-name="s" unicode="s" horiz-adv-x="896" 
d="M0 256v256h512v256h-384v256h-128v256h128v256h640v-256h-512v-256h384v-256h128v-256h-128v-256h-640z" />
    <glyph glyph-name="t" unicode="t" horiz-adv-x="768" 
d="M256 256v256h-128v768h-128v256h128v256h128v256h128v-512h256v-256h-256v-768h128v-256h-256zM512 512v256h128v-256h-128z" />
    <glyph glyph-name="u" unicode="u" 
d="M640 256v256h-128v1024h256v-1024h128v-256h-256zM128 256v256h-128v1024h256v-1024h256v-256h-384z" />
    <glyph glyph-name="v" unicode="v" horiz-adv-x="896" 
d="M256 256v256h-128v256h-128v768h256v-768h256v768h256v-768h-128v-256h-128v-256h-256z" />
    <glyph glyph-name="w" unicode="w" 
d="M128 256v512h-128v768h256v-768h128v-512h-256zM512 768h128v768h256v-768h-128v-512h-256v512zM512 768h-128v512h128v-512z" />
    <glyph glyph-name="x" unicode="x" 
d="M0 256v256h128v256h128v256h-128v256h-128v256h256v-256h128v-256h128v256h128v256h256v-256h-128v-256h-128v-256h128v-256h128v-256h-256v256h-128v256h-128v-256h-128v-256h-256z" />
    <glyph glyph-name="y" unicode="y" horiz-adv-x="896" 
d="M0 0v256h256v256h-128v256h-128v768h256v-768h256v768h256v-768h-128v-256h-128v-256h-128v-256h-384z" />
    <glyph glyph-name="z" unicode="z" horiz-adv-x="896" 
d="M0 256v256h128v256h128v256h128v256h-256v-256h-128v512h768v-256h-128v-256h-128v-256h-128v-256h256v256h128v-512h-768z" />
    <glyph glyph-name="braceleft" unicode="{" 
d="M512 256v256h-128v512h-256v256h256v512h128v256h384v-256h-256v-512h-128v-256h128v-512h256v-256h-384z" />
    <glyph glyph-name="bar" unicode="|" horiz-adv-x="512" 
d="M128 256v1792h256v-1792h-256z" />
    <glyph glyph-name="braceright" unicode="}" 
d="M128 256v256h256v512h128v256h-128v512h-256v256h384v-256h128v-512h256v-256h-256v-512h-128v-256h-384z" />
    <glyph glyph-name="asciitilde" unicode="~" horiz-adv-x="1152" 
d="M512 1536v256h-256v256h384v-256h256v256h128v-256h-128v-256h-384zM128 1536v256h128v-256h-128z" />
    <glyph glyph-name="exclamdown" unicode="&#xa1;" horiz-adv-x="768" 
d="M256 1536v256h256v-256h-256zM256 0v256h-128v512h128v512h256v-512h128v-512h-128v-256h-256z" />
    <glyph glyph-name="cent" unicode="&#xa2;" horiz-adv-x="1152" 
d="M640 512v256h-256v256h-128v512h128v256h256v256h256v-256h128v-256h-128v-512h128v-256h-128v-256h-256zM640 1024v512h-128v-512h128z" />
    <glyph glyph-name="sterling" unicode="&#xa3;" 
d="M128 256v256h128v512h-128v256h128v512h128v256h384v-256h128v-256h-256v256h-128v-512h128v-256h-128v-512h384v-256h-768z" />
    <glyph glyph-name="currency" unicode="&#xa4;" 
d="M128 1792v256h128v-256h-128zM640 1280v256h-256v-256h256zM128 768v256h128v256h-128v256h128v256h512v256h128v-256h-128v-256h128v-256h-128v-256h-512v-256h-128zM768 1024h128v-256h-128v256z" />
    <glyph glyph-name="yen" unicode="&#xa5;" horiz-adv-x="1280" 
d="M384 256v256h128v256h-128v256h128v256h-128v256h-128v256h-128v256h256v-256h128v-256h256v256h128v256h256v-256h-128v-256h-128v-256h-128v-256h128v-256h-128v-256h128v-256h-512z" />
    <glyph glyph-name="brokenbar" unicode="&#xa6;" horiz-adv-x="512" 
d="M128 1280v768h256v-768h-256zM128 256v768h256v-768h-256z" />
    <glyph glyph-name="section" unicode="&#xa7;" 
d="M128 1536v256h128v256h512v-256h-512v-256h-128zM256 768v256h-128v256h128v256h512v-256h128v-256h-128v-256h-512zM640 1024v256h-256v-256h256zM256 256v256h512v256h128v-256h-128v-256h-512z" />
    <glyph glyph-name="dieresis" unicode="&#xa8;" 
d="M640 1792v256h256v-256h-256zM128 1792v256h256v-256h-256z" />
    <glyph glyph-name="copyright" unicode="&#xa9;" horiz-adv-x="1280" 
d="M128 256v1536h128v256h768v-256h-768v-1536h-128zM512 512v256h-128v512h128v256h384v-256h-256v-512h256v-256h-384zM1024 1792h128v-1536h-128v1536zM1024 256v-256h-768v256h768z" />
    <glyph glyph-name="ordfeminine" unicode="&#xaa;" 
d="M128 1024v512h128v-256h384v512h-256v256h256v-256h128v-768h-640zM128 512v256h768v-256h-768zM384 1792v-256h-128v256h128z" />
    <glyph glyph-name="guillemotleft" unicode="&#xab;" horiz-adv-x="1152" 
d="M768 512v256h-128v256h-128v256h128v256h128v256h256v-256h-128v-256h-128v-256h128v-256h128v-256h-256zM256 512v256h-128v256h-128v256h128v256h128v256h256v-256h-128v-256h-128v-256h128v-256h128v-256h-256z" />
    <glyph glyph-name="logicalnot" unicode="&#xac;" horiz-adv-x="1152" 
d="M768 1536v256h-512v256h768v-512h-256z" />
    <glyph glyph-name="uni00AD" unicode="&#xad;" 
d="M0 0v256h896v-256h-896z" />
    <glyph glyph-name="registered" unicode="&#xae;" horiz-adv-x="1280" 
d="M128 256v1536h128v256h768v-256h-768v-1536h-128zM384 512v1024h384v-512h-128v-256h-128v-256h-128zM1024 1792h128v-1536h-128v1536zM640 768h128v-256h-128v256zM1024 256v-256h-768v256h768z" />
    <glyph glyph-name="macron" unicode="&#xaf;" 
d="M128 1792v256h768v-256h-768z" />
    <glyph glyph-name="degree" unicode="&#xb0;" 
d="M256 1280v256h-128v256h128v256h512v-256h128v-256h-128v-256h-512zM640 1536v256h-256v-256h256z" />
    <glyph glyph-name="plusminus" unicode="&#xb1;" 
d="M384 512v512h-256v256h256v512h256v-512h256v-256h-256v-512h-256zM128 0v256h768v-256h-768z" />
    <glyph glyph-name="uni00B2" unicode="&#xb2;" horiz-adv-x="768" 
d="M0 768v256h128v256h128v256h128v256h-384v256h512v-256h128v-256h-128v-256h-128v-256h256v-256h-640z" />
    <glyph glyph-name="uni00B3" unicode="&#xb3;" horiz-adv-x="768" 
d="M0 768v256h384v256h-128v256h128v256h-384v256h512v-256h128v-256h-128v-256h128v-256h-128v-256h-512z" />
    <glyph glyph-name="acute" unicode="&#xb4;" horiz-adv-x="768" 
d="M256 1280v256h128v256h256v-256h-128v-256h-256z" />
    <glyph glyph-name="mu" unicode="&#xb5;" 
d="M0 0v1536h256v-768h128v-256h128v256h128v768h256v-1280h-128v256h-128v-256h-384v-256h-256z" />
    <glyph glyph-name="paragraph" unicode="&#xb6;" 
d="M384 128v768h-256v256h-128v512h128v256h768v-256h-128v-1536h-128v1536h-128v-1536h-128z" />
    <glyph glyph-name="periodcentered" unicode="&#xb7;" horiz-adv-x="768" 
d="M256 896v512h256v-512h-256z" />
    <glyph glyph-name="uni00B9" unicode="&#xb9;" horiz-adv-x="640" 
d="M256 768v768h-128v256h128v256h256v-1280h-256z" />
    <glyph glyph-name="ordmasculine" unicode="&#xba;" horiz-adv-x="768" 
d="M0 1280v512h128v256h384v-256h-384v-512h-128zM0 512v256h640v-256h-640zM512 1792h128v-512h-128v512zM512 1280v-256h-384v256h384z" />
    <glyph glyph-name="guillemotright" unicode="&#xbb;" horiz-adv-x="1152" 
d="M512 512v256h128v256h128v256h-128v256h-128v256h256v-256h128v-256h128v-256h-128v-256h-128v-256h-256zM0 512v256h128v256h128v256h-128v256h-128v256h256v-256h128v-256h128v-256h-128v-256h-128v-256h-256z" />
    <glyph glyph-name="onequarter" unicode="&#xbc;" 
d="M128 1024v512h-128v256h128v256h128v-1024h-128zM0 256v256h128v256h128v256h128v256h128v256h128v256h256v-256h-128v-256h-128v-256h-128v-256h-128v-256h-128v-256h-256zM768 0v256h-256v256h128v256h128v256h128v-1024h-128z" />
    <glyph glyph-name="onehalf" unicode="&#xbd;" 
d="M128 1024v512h-128v256h128v256h128v-1024h-128zM0 256v256h128v256h128v256h128v256h128v256h128v256h256v-256h-128v-256h-128v-256h-128v-256h-128v-256h-128v-256h-256zM512 0v256h128v256h128v256h-128v256h256v-512h-128v-256h128v-256h-384z" />
    <glyph glyph-name="threequarters" unicode="&#xbe;" horiz-adv-x="1152" 
d="M0 1792v256h256v-256h-256zM128 256v256h128v256h128v256h128v256h128v256h128v256h256v-256h-128v-256h-128v-256h-128v-256h-128v-256h-128v-256h-256zM896 0v256h-256v256h128v256h128v256h128v-1024h-128zM0 768v256h256v256h-128v256h128v256h128v-768h-128v-256
h-256z" />
    <glyph glyph-name="questiondown" unicode="&#xbf;" 
d="M384 1536v256h256v-256h-256zM256 0v256h-128v512h128v256h128v256h256v-256h-128v-256h-128v-512h256v256h256v-256h-128v-256h-512z" />
    <glyph glyph-name="Agrave" unicode="&#xc0;" horiz-adv-x="1152" 
d="M256 1792v256h256v-256h-256zM0 256v512h128v512h128v256h256v256h128v-256h128v-256h128v-512h128v-512h-256v512h-512v-512h-256zM640 1024v256h-256v-256h256z" />
    <glyph glyph-name="Aacute" unicode="&#xc1;" horiz-adv-x="1152" 
d="M0 256v512h128v512h128v256h128v256h128v256h256v-256h-256v-256h256v-256h128v-512h128v-512h-256v512h-512v-512h-256zM640 1024v256h-256v-256h256z" />
    <glyph glyph-name="Acircumflex" unicode="&#xc2;" horiz-adv-x="1152" 
d="M0 256v512h128v512h128v512h128v256h256v-256h-256v-256h256v256h128v-512h128v-512h128v-512h-256v512h-512v-512h-256zM640 1024v256h-256v-256h256z" />
    <glyph glyph-name="Atilde" unicode="&#xc3;" horiz-adv-x="1152" 
d="M0 256v512h128v512h128v256h256v256h-384v256h384v-256h384v256h128v-256h-128v-256h-128v-256h128v-512h128v-512h-256v512h-512v-512h-256zM0 1536v256h128v-256h-128zM640 1024v256h-256v-256h256z" />
    <glyph glyph-name="Adieresis" unicode="&#xc4;" horiz-adv-x="1152" 
d="M768 1792v256h256v-256h-256zM0 1792v256h256v-256h-256zM0 256v512h128v512h128v256h128v256h256v-256h128v-256h128v-512h128v-512h-256v512h-512v-512h-256zM640 1024v256h-256v-256h256z" />
    <glyph glyph-name="Aring" unicode="&#xc5;" horiz-adv-x="1152" 
d="M0 256v512h128v512h128v256h-128v256h128v256h512v-256h128v-256h-128v-256h128v-512h128v-512h-256v512h-512v-512h-256zM640 1536v256h-256v-256h256zM640 1024v256h-256v-256h256z" />
    <glyph glyph-name="AE" unicode="&#xc6;" horiz-adv-x="1152" 
d="M0 256v512h128v512h128v512h128v256h640v-256h-256v-512h256v-256h-256v-512h256v-256h-512v512h-256v-512h-256zM512 1024v256h-128v-256h128z" />
    <glyph glyph-name="Ccedilla" unicode="&#xc7;" 
d="M512 256v256h-256v256h-128v256h-128v512h128v256h128v256h512v-256h128v-256h-256v256h-256v-256h-128v-512h128v-256h256v256h256v-256h-128v-256h-128v-256h-128z" />
    <glyph glyph-name="Egrave" unicode="&#xc8;" 
d="M128 1792v256h256v-256h-256zM0 256v256h128v768h-128v256h384v256h128v-256h384v-256h-512v-256h256v-256h-256v-256h512v-256h-896z" />
    <glyph glyph-name="Eacute" unicode="&#xc9;" 
d="M0 256v256h128v768h-128v256h256v256h128v256h256v-256h-256v-256h512v-256h-512v-256h256v-256h-256v-256h512v-256h-896z" />
    <glyph glyph-name="Ecircumflex" unicode="&#xca;" 
d="M0 256v256h128v768h-128v256h256v256h128v256h256v-256h-256v-256h256v256h128v-256h128v-256h-512v-256h256v-256h-256v-256h512v-256h-896z" />
    <glyph glyph-name="Edieresis" unicode="&#xcb;" 
d="M640 1792v256h256v-256h-256zM128 1792v256h256v-256h-256zM0 256v256h128v768h-128v256h896v-256h-512v-256h256v-256h-256v-256h512v-256h-896z" />
    <glyph glyph-name="Igrave" unicode="&#xcc;" 
d="M256 1792v256h256v-256h-256zM128 256v256h256v768h-256v256h384v256h128v-256h256v-256h-256v-768h256v-256h-768z" />
    <glyph glyph-name="Iacute" unicode="&#xcd;" 
d="M128 256v256h256v768h-256v256h256v256h128v256h256v-256h-256v-256h384v-256h-256v-768h256v-256h-768z" />
    <glyph glyph-name="Icircumflex" unicode="&#xce;" 
d="M128 256v256h256v768h-256v256h128v256h128v256h256v-256h-256v-256h256v256h128v-256h128v-256h-256v-768h256v-256h-768z" />
    <glyph glyph-name="Idieresis" unicode="&#xcf;" 
d="M640 1792v256h256v-256h-256zM128 1792v256h256v-256h-256zM128 256v256h256v768h-256v256h768v-256h-256v-768h256v-256h-768z" />
    <glyph glyph-name="Eth" unicode="&#xd0;" 
d="M0 256v256h128v512h-128v256h128v512h-128v256h640v-256h128v-256h128v-768h-128v-256h-128v-256h-640zM512 512v256h128v768h-128v256h-128v-512h128v-256h-128v-512h128z" />
    <glyph glyph-name="Ntilde" unicode="&#xd1;" horiz-adv-x="1152" 
d="M640 256v256h-128v256h128v768h-128v256h128v256h384v-256h-128v-1536h-256zM0 256v1792h512v-256h-256v-256h128v-512h-128v-768h-256zM512 768h-128v256h128v-256z" />
    <glyph glyph-name="Ograve" unicode="&#xd2;" horiz-adv-x="1152" 
d="M256 1792v256h256v-256h-256zM256 256v256h-128v256h-128v256h128v256h128v256h256v256h128v-256h128v-256h128v-256h128v-256h-128v-256h-128v-256h-512zM640 512v256h128v256h-128v256h-256v-256h-128v-256h128v-256h256z" />
    <glyph glyph-name="Oacute" unicode="&#xd3;" horiz-adv-x="1152" 
d="M256 256v256h-128v256h-128v256h128v256h128v256h128v256h128v256h256v-256h-256v-256h256v-256h128v-256h128v-256h-128v-256h-128v-256h-512zM640 512v256h128v256h-128v256h-256v-256h-128v-256h128v-256h256z" />
    <glyph glyph-name="Ocircumflex" unicode="&#xd4;" horiz-adv-x="1152" 
d="M256 256v256h-128v256h-128v256h128v256h128v512h128v256h256v-256h-256v-256h256v256h128v-512h128v-256h128v-256h-128v-256h-128v-256h-512zM640 512v256h128v256h-128v256h-256v-256h-128v-256h128v-256h256z" />
    <glyph glyph-name="Otilde" unicode="&#xd5;" horiz-adv-x="1152" 
d="M256 256v256h-128v256h-128v256h128v256h128v256h256v256h-384v256h384v-256h384v256h128v-256h-128v-256h-128v-256h128v-256h128v-256h-128v-256h-128v-256h-512zM0 1536v256h128v-256h-128zM640 512v256h128v256h-128v256h-256v-256h-128v-256h128v-256h256z" />
    <glyph glyph-name="Odieresis" unicode="&#xd6;" horiz-adv-x="1152" 
d="M0 1792v256h256v-256h-256zM256 256v256h-128v256h-128v512h128v256h128v256h512v256h256v-256h-256v-256h128v-256h128v-512h-128v-256h-128v-256h-512zM640 512v256h128v512h-128v256h-256v-256h-128v-512h128v-256h256z" />
    <glyph glyph-name="multiply" unicode="&#xd7;" 
d="M128 512v256h128v256h128v256h-128v256h-128v256h256v-256h256v256h256v-256h-128v-256h-128v-256h128v-256h128v-256h-256v256h-256v-256h-256z" />
    <glyph glyph-name="Oslash" unicode="&#xd8;" horiz-adv-x="1152" 
d="M256 256v256h-128v256h-128v768h128v256h128v256h512v-256h128v256h128v-256h-128v-256h128v-768h-128v-256h-128v-256h-512zM384 1024v256h128v256h128v256h-256v-256h-128v-512h128zM640 512v256h128v512h-128v-256h-128v-256h-128v-256h256zM0 256v256h128v-256h-128z
" />
    <glyph glyph-name="Ugrave" unicode="&#xd9;" 
d="M256 1792v256h256v-256h-256zM256 256v256h-128v1024h256v-1024h256v1024h-128v256h128v-256h256v-1280h-640z" />
    <glyph glyph-name="Uacute" unicode="&#xda;" 
d="M256 256v256h-128v1024h256v256h128v256h256v-256h-256v-256h-128v-1024h256v1024h256v-1280h-640z" />
    <glyph glyph-name="Ucircumflex" unicode="&#xdb;" 
d="M256 256v256h-128v1024h128v256h128v256h256v-256h-256v-1280h256v1280h128v-256h128v-1280h-640z" />
    <glyph glyph-name="Udieresis" unicode="&#xdc;" 
d="M640 1792v256h256v-256h-256zM128 1792v256h256v-256h-256zM256 256v256h-128v1024h256v-1024h256v1024h256v-1280h-640z" />
    <glyph glyph-name="Yacute" unicode="&#xdd;" horiz-adv-x="1152" 
d="M512 1536v256h128v256h256v-256h-256v-256h-128zM256 256v256h128v256h-128v256h-128v256h-128v256h256v-256h128v-256h256v256h128v256h256v-256h-128v-256h-128v-256h-128v-256h128v-256h-512z" />
    <glyph glyph-name="Thorn" unicode="&#xde;" horiz-adv-x="1152" 
d="M0 0v256h128v1536h-128v256h512v-256h-128v-256h512v-256h128v-512h-128v-256h-512v-256h128v-256h-512zM768 768v512h-384v-512h384z" />
    <glyph glyph-name="germandbls" unicode="&#xdf;" 
d="M128 0v2048h640v-256h128v-512h-128v-256h128v-512h-128v-256h-256v256h128v512h-128v256h128v512h-256v-1792h-256z" />
    <glyph glyph-name="agrave" unicode="&#xe0;" 
d="M128 1792v256h256v-256h-256zM640 256v256h-128v256h-256v256h256v256h-384v256h256v256h128v-256h128v-256h128v-768h128v-256h-256zM128 256v256h-128v256h256v-256h256v-256h-384z" />
    <glyph glyph-name="aacute" unicode="&#xe1;" 
d="M640 256v256h-128v256h-256v256h256v256h-384v256h128v256h128v256h256v-256h-256v-256h256v-256h128v-768h128v-256h-256zM128 256v256h-128v256h256v-256h256v-256h-384z" />
    <glyph glyph-name="acircumflex" unicode="&#xe2;" 
d="M640 256v256h-128v256h-256v256h256v256h-384v512h128v256h256v-256h-256v-256h256v256h128v-512h128v-768h128v-256h-256zM128 256v256h-128v256h256v-256h256v-256h-384z" />
    <glyph glyph-name="atilde" unicode="&#xe3;" horiz-adv-x="1152" 
d="M768 256v256h-128v256h-256v256h256v256h-384v256h256v256h-384v256h384v-256h384v256h128v-256h-128v-256h-128v-256h128v-768h128v-256h-256zM0 1536v256h128v-256h-128zM256 256v256h-128v256h256v-256h256v-256h-384z" />
    <glyph glyph-name="adieresis" unicode="&#xe4;" 
d="M640 1792v256h256v-256h-256zM128 1792v256h256v-256h-256zM640 256v256h-128v256h-256v256h256v256h-384v256h512v-256h128v-768h128v-256h-256zM128 256v256h-128v256h256v-256h256v-256h-384z" />
    <glyph glyph-name="aring" unicode="&#xe5;" 
d="M640 256v256h-128v256h-256v256h256v256h-384v256h-128v256h128v256h512v-256h128v-256h-128v-256h128v-768h128v-256h-256zM512 1536v256h-256v-256h256zM128 256v256h-128v256h256v-256h256v-256h-384z" />
    <glyph glyph-name="ae" unicode="&#xe6;" horiz-adv-x="1280" 
d="M256 256v256h-128v256h128v256h256v256h-256v256h768v-256h128v-512h-384v-256h-128v-256h-384zM896 1024v256h-128v-256h128zM512 512v256h-128v-256h128zM768 512h384v-256h-384v256z" />
    <glyph glyph-name="ccedilla" unicode="&#xe7;" 
d="M384 0v256h-128v256h-128v768h128v256h512v-256h128v-256h-256v256h-256v-768h256v256h256v-256h-128v-256h-256v-256h-128z" />
    <glyph glyph-name="egrave" unicode="&#xe8;" 
d="M256 1792v256h256v-256h-256zM256 256v256h-128v768h128v256h256v256h128v-256h128v-256h128v-512h-512v-256h384v-256h-512zM640 1024v256h-256v-256h256z" />
    <glyph glyph-name="eacute" unicode="&#xe9;" 
d="M256 256v256h-128v768h128v256h128v256h128v256h256v-256h-256v-256h256v-256h128v-512h-512v-256h384v-256h-512zM640 1024v256h-256v-256h256z" />
    <glyph glyph-name="ecircumflex" unicode="&#xea;" 
d="M256 256v256h-128v768h128v512h128v256h256v-256h-256v-256h256v256h128v-512h128v-512h-512v-256h384v-256h-512zM640 1024v256h-256v-256h256z" />
    <glyph glyph-name="edieresis" unicode="&#xeb;" 
d="M640 1792v256h256v-256h-256zM128 1792v256h256v-256h-256zM256 256v256h-128v768h128v256h512v-256h128v-512h-512v-256h384v-256h-512zM640 1024v256h-256v-256h256z" />
    <glyph glyph-name="igrave" unicode="&#xec;" horiz-adv-x="768" 
d="M128 1792v256h256v-256h-256zM128 256v256h128v768h-128v256h256v256h128v-1280h128v-256h-512z" />
    <glyph glyph-name="iacute" unicode="&#xed;" horiz-adv-x="768" 
d="M128 256v256h128v768h-128v256h128v256h128v256h256v-256h-256v-256h128v-1024h128v-256h-512z" />
    <glyph glyph-name="icircumflex" unicode="&#xee;" horiz-adv-x="768" 
d="M128 256v256h128v768h-128v512h128v256h256v-256h-256v-256h256v256h128v-256h-128v-1024h128v-256h-512z" />
    <glyph glyph-name="idieresis" unicode="&#xef;" 
d="M640 1792v256h256v-256h-256zM128 1792v256h256v-256h-256zM256 256v256h128v768h-128v256h384v-1024h128v-256h-512z" />
    <glyph glyph-name="eth" unicode="&#xf0;" 
d="M128 256v256h-128v512h128v256h256v256h-384v256h128v256h256v-256h384v-256h-128v-256h128v-256h128v-512h-128v-256h-640zM640 512v512h-384v-512h384z" />
    <glyph glyph-name="ntilde" unicode="&#xf1;" 
d="M0 1536v256h128v256h384v-256h-384v-256h384v256h384v-256h-128v-256h128v-1024h-256v1024h-256v-1024h-256v1280h-128z" />
    <glyph glyph-name="ograve" unicode="&#xf2;" 
d="M256 1792v256h256v-256h-256zM256 256v256h-128v768h128v256h256v256h128v-256h128v-256h128v-768h-128v-256h-512zM640 512v768h-256v-768h256z" />
    <glyph glyph-name="oacute" unicode="&#xf3;" 
d="M256 256v256h-128v768h128v256h128v256h128v256h256v-256h-256v-256h256v-256h128v-768h-128v-256h-512zM640 512v768h-256v-768h256z" />
    <glyph glyph-name="ocircumflex" unicode="&#xf4;" 
d="M256 256v256h-128v768h128v512h128v256h256v-256h-256v-256h256v256h128v-512h128v-768h-128v-256h-512zM640 512v768h-256v-768h256z" />
    <glyph glyph-name="otilde" unicode="&#xf5;" horiz-adv-x="1152" 
d="M256 256v256h-128v768h128v256h256v256h-384v256h384v-256h384v256h128v-256h-128v-256h-128v-256h128v-768h-128v-256h-512zM0 1536v256h128v-256h-128zM640 512v768h-256v-768h256z" />
    <glyph glyph-name="odieresis" unicode="&#xf6;" 
d="M640 1792v256h256v-256h-256zM128 1792v256h256v-256h-256zM256 256v256h-128v768h128v256h512v-256h128v-768h-128v-256h-512zM640 512v768h-256v-768h256z" />
    <glyph glyph-name="divide" unicode="&#xf7;" 
d="M384 1536v256h256v-256h-256zM128 1024v256h768v-256h-768zM384 512v256h256v-256h-256z" />
    <glyph glyph-name="oslash" unicode="&#xf8;" horiz-adv-x="1152" 
d="M768 768v512h-128v256h-256v-512h128v-256h256zM128 256v256h128v256h-128v768h128v256h640v256h128v-256h-128v-256h128v-768h-128v-256h-640v-256h-128zM640 1280v-256h-128v256h128z" />
    <glyph glyph-name="ugrave" unicode="&#xf9;" horiz-adv-x="1152" 
d="M256 1792v256h256v-256h-256zM768 256v256h-128v1024h-128v256h128v-256h256v-1024h128v-256h-256zM256 256v256h-128v1024h256v-1024h256v-256h-384z" />
    <glyph glyph-name="uacute" unicode="&#xfa;" horiz-adv-x="1152" 
d="M768 256v256h-128v1024h256v-1024h128v-256h-256zM256 256v256h-128v1024h256v256h128v256h256v-256h-256v-256h-128v-1024h256v-256h-384z" />
    <glyph glyph-name="ucircumflex" unicode="&#xfb;" horiz-adv-x="1152" 
d="M768 256v256h-128v1280h-256v256h256v-256h128v-256h128v-1024h128v-256h-256zM256 256v256h-128v1024h128v256h128v-1280h256v-256h-384z" />
    <glyph glyph-name="udieresis" unicode="&#xfc;" horiz-adv-x="1152" 
d="M640 1792v256h256v-256h-256zM128 1792v256h256v-256h-256zM768 256v256h-128v1024h256v-1024h128v-256h-256zM256 256v256h-128v1024h256v-1024h256v-256h-384z" />
    <glyph glyph-name="yacute" unicode="&#xfd;" 
d="M128 0v256h256v256h-128v256h-128v768h256v256h128v256h256v-256h-256v-256h-128v-768h256v768h256v-768h-128v-256h-128v-256h-128v-256h-384z" />
    <glyph glyph-name="thorn" unicode="&#xfe;" 
d="M0 0v256h128v1536h-128v256h512v-256h-128v-256h384v-256h128v-512h-128v-256h-384v-256h128v-256h-512zM640 768v512h-256v-512h256z" />
    <glyph glyph-name="ydieresis" unicode="&#xff;" 
d="M640 1792v256h256v-256h-256zM128 1792v256h256v-256h-256zM128 0v256h256v256h-128v256h-128v768h256v-768h256v768h256v-768h-128v-256h-128v-256h-128v-256h-384z" />
  </font>
</defs>
</svg>
